<svg xmlns="http://www.w3.org/2000/svg" width="1920.055" height="304.054" viewBox="0 0 1920.055 304.054">
  <defs>
    <style>
      .cls-1 {
        fill: #e82147;
      }

      .cls-2 {
        fill: #ffe0c2;
      }
    </style>
  </defs>
  <g id="Rodapé" transform="translate(0 -2722.885)">
    <g id="Rodapé_elemento_1" transform="translate(121.125 2722.885) rotate(9)">
      <path id="Fill_517" data-name="Fill 517" class="cls-1" d="M85.727,136.951a53.233,53.233,0,0,1-9.6-1.038c-5.718-1.062-11.512-1.934-17.44-2.807a145.332,145.332,0,0,1-15.041-3.017,127.945,127.945,0,0,1-14.6-4.7,82,82,0,0,1-16.984-8.824,33.429,33.429,0,0,1-9.514-9.329A14.442,14.442,0,0,1,.015,98.647a15.081,15.081,0,0,1,3.33-8.413C6.726,85.788,11.3,83,15.323,80.864A53.425,53.425,0,0,1,28.13,76.075a73.134,73.134,0,0,1,13.557-1.847c5.459-.268,11.012-.284,16.382-.3l2.57-.008a24.637,24.637,0,0,0,5.575-.88c.59-.14,1.2-.285,1.8-.413,4.877-1.035,9.7-2.254,13.363-3.2a21.461,21.461,0,0,0,5.251-1.966,5.529,5.529,0,0,1,1.062-.421,3.5,3.5,0,0,0,1.682-.911.624.624,0,0,1,.49-.218,2.118,2.118,0,0,1,.928.327,1.591,1.591,0,0,0,.722.243c.335,0,.512-.258.525-.766a1.93,1.93,0,0,1,1.743-2.039c.531-.1.956-.214,1.187-.725.029-.067.1-.165.14-.165a1.74,1.74,0,0,0,.181.01,1.965,1.965,0,0,0,1.439-.827,3.681,3.681,0,0,1,.655-.593c.76-.489,1.522-1,2.258-1.5l.005,0c.966-.652,1.964-1.327,2.971-1.951.706-.439,1.384-.942,2.04-1.429.447-.332.909-.675,1.375-.994.118-.081.239-.16.367-.245a7.311,7.311,0,0,0,1.266-.969c.3-.314.633-.6.953-.881.243-.212.493-.43.729-.657a15.836,15.836,0,0,1,2.177-1.664,17.38,17.38,0,0,0,2.021-1.515,34.3,34.3,0,0,0,2.73-2.916c.514-.594,1.045-1.207,1.592-1.788.826-.877,1.653-1.773,2.452-2.639a92.074,92.074,0,0,1,9.571-9.406,21.806,21.806,0,0,1,6.3-3.541,26.617,26.617,0,0,1,7.1-1.455,25.5,25.5,0,0,0,5.378-1.188c.635-.19,1.292-.386,1.946-.56a34.131,34.131,0,0,0,6.944-2.886,9.271,9.271,0,0,0,2.668-2.49c.2-.24.4-.487.608-.726.644-.743,1.286-1.515,1.906-2.262a38.572,38.572,0,0,1,7.357-7.386c.519-.36,1.046-.73,1.555-1.087l.012-.008a58.691,58.691,0,0,1,8.07-5.037A38.185,38.185,0,0,1,190.976.482a45.333,45.333,0,0,1,6.4-.481,32.672,32.672,0,0,1,12.087,2.192,32.307,32.307,0,0,1,7.683,4.213,32.03,32.03,0,0,1,7.573,8.287,27.107,27.107,0,0,1,3.611,8.285,42.508,42.508,0,0,1,1.207,8.96,37.209,37.209,0,0,1-.516,8.921c-.1.489-.228.991-.353,1.477a20.466,20.466,0,0,0-.456,2.067,28.645,28.645,0,0,1-2.866,8.081l-.178.377c-1.209,2.562-2.641,5.07-4.027,7.5l-.483.847c-.475.834-1.028,1.635-1.563,2.409a23.439,23.439,0,0,0-2.133,3.518,5.718,5.718,0,0,1-1.1,1.451c-.178.189-.362.385-.53.583a6.012,6.012,0,0,0-.8,1.4,7.184,7.184,0,0,1-.663,1.224c-1.09,1.509-2.164,3.065-3.2,4.57-.947,1.373-1.926,2.792-2.917,4.173-2.67,3.723-5,7.74-7.262,11.625-.815,1.4-1.658,2.852-2.5,4.267-.741,1.239-1.482,2.486-2.2,3.692-.6,1.011-1.282,2.158-1.946,3.27a35.393,35.393,0,0,1-2.034,2.934c-.188.252-.4.537-.6.811a10.354,10.354,0,0,1-1.172,1.257c-.267.257-.543.522-.786.79a9.689,9.689,0,0,1-.967.888,4.888,4.888,0,0,0-1.7,2.071,2.43,2.43,0,0,1-1.564,1.506,3.2,3.2,0,0,0-1.138.832,3.163,3.163,0,0,1-1.2.857l-4.636,3.334a13.428,13.428,0,0,1-4.669,2.561c-.286.1-.578.194-.861.284a7.052,7.052,0,0,0-2.864,1.42.913.913,0,0,1-.555.3.488.488,0,0,1-.327-.14.422.422,0,0,0-.275-.122.25.25,0,0,0-.249.216c-.087.429-.264.621-.576.621a1.86,1.86,0,0,1-.557-.123.994.994,0,0,0-.3-.063c-.075,0-.122.02-.142.061-.035.071.02.2.163.383-.095.046-.189.1-.281.144a4.865,4.865,0,0,1-.616.288,135.657,135.657,0,0,1-15.4,4.714,34.04,34.04,0,0,0-4.856,1.632c-1.016.4-2.067.813-3.125,1.153a61.279,61.279,0,0,1-15.188,2.586c-1.375.085-2.775.116-4.129.146-1.722.038-3.5.078-5.232.228-3.172.274-6.4.469-9.524.657s-6.34.382-9.5.656c-3.934.341-7.925.5-12.008.656C86.566,136.944,86.147,136.951,85.727,136.951Zm36.035-8.839c-4.774,0-38.7,1.424-39.964,1.6a17.7,17.7,0,0,0,4.562.555l.052,0c1.162.035,2.369.052,3.587.052,7.855,0,15.8-.726,23.474-1.427,2.868-.262,5.833-.533,8.753-.762A3.8,3.8,0,0,0,121.762,128.112Zm-26.709-7.294a16.95,16.95,0,0,0-4.338.762c-.537.143-1.092.292-1.642.416.261.019.539.03.826.03a23.163,23.163,0,0,0,5.448-.876c.321-.078.648-.158.971-.234A8.034,8.034,0,0,0,95.053,120.818Zm10.414-.488a6.076,6.076,0,0,0-3.089.67,16.566,16.566,0,0,1,2.684-.3,15.669,15.669,0,0,0,2.837-.335c-.131,0-.274.007-.434.007-.333,0-.673-.011-1-.021h-.005c-.326-.01-.663-.021-.991-.021Zm71.214-6.172-3.082,1.7-3.082,1.7.1.185.031.055a26.486,26.486,0,0,0,5.15-2.726l.013-.008c.34-.213.691-.434,1.039-.647Zm-2.359-1.805a.85.85,0,0,0-.815.4.255.255,0,0,0,0,.234.478.478,0,0,0,.32.275.989.989,0,0,0,.2.021c.453,0,.682-.378.934-.871l-.04,0A5.074,5.074,0,0,0,174.322,112.353Zm15.712-14.42c-1.3,1.323-2.632,2.655-3.921,3.944-3.611,3.61-7.342,7.341-10.745,11.267C181.378,109.806,186.176,104.831,190.034,97.933Zm-178.785,12.9a1.168,1.168,0,0,0-.629.192c.8,1.037,1.36,1.48,1.866,1.48.46,0,.919-.368,1.487-1.195a1.335,1.335,0,0,1-.684.2,2.3,2.3,0,0,1-1.036-.338l-.016-.008A2.215,2.215,0,0,0,11.249,110.835Zm-6.34-7.829h0a2.066,2.066,0,0,0,.1,1.474l.026.07c.776,2.14,2.247,3.67,4.088,5.447.408.394.632.579.919.579a2.753,2.753,0,0,0,1.088-.425c-1.651-.363-2.817-1.088-3.2-1.988a1.788,1.788,0,0,1,.184-1.688c-.126-.069-.282-.139-.447-.213-.41-.185-.873-.394-.947-.621a.2.2,0,0,1,.02-.17.868.868,0,0,0,.166-.687c-.071-.2-.291-.28-.5-.359a1.207,1.207,0,0,1-.332-.161c-.087-.071-.177-.134-.272-.2a2.072,2.072,0,0,1-.894-1.056Zm68.213-3.24c-.254.023-.509.041-.756.059a8.1,8.1,0,0,0-3.433.752l.412,0h.081a6.214,6.214,0,0,0,3.7-.807Zm2.168-1.4a7.172,7.172,0,0,0-3.3.672,3.552,3.552,0,0,1,1.359-.187,3.406,3.406,0,0,0,2.052-.485h-.108Zm15.352-.833h0a5.464,5.464,0,0,0-2.973,1.2l.156-.013a3.632,3.632,0,0,0,2.817-1.187ZM18.82,80.608a34.514,34.514,0,0,0-9.828,5.739C12.552,84.088,15.768,82.211,18.82,80.608Zm20.426,2.461h0a2.022,2.022,0,0,0-.808.723c-.02.053-.017.092.011.116a.628.628,0,0,0,.444.169,1.993,1.993,0,0,0,.417-.062l.024-.005a2.276,2.276,0,0,1,.487-.068,1.149,1.149,0,0,1,.295.037.916.916,0,0,0-.48-.422c-.2-.1-.367-.182-.371-.471,0-.012-.006-.017-.019-.017Zm7.069-.12a.223.223,0,0,1,.16.077,1.87,1.87,0,0,0,.85.425,2.161,2.161,0,0,1,1.1.608,1.89,1.89,0,0,0-.172-.678c-.08-.2-.149-.376-.093-.495a.271.271,0,0,1,.176-.132.519.519,0,0,1,.159-.029c.222,0,.3.2.391.437a.9.9,0,0,0,.426.573.86.86,0,0,1,.925-.811,1.91,1.91,0,0,1,.3.025,5.823,5.823,0,0,0,.914.071,12.051,12.051,0,0,0,3.52-.711c.433-.134.881-.272,1.325-.388a20.491,20.491,0,0,1,3.314-.542,37.05,37.05,0,0,0,3.873-.638c.589-.119,1.2-.241,1.791-.346,2.054-.363,4.225-.835,6.637-1.443.35-.088.717-.148,1.073-.205a5.09,5.09,0,0,0,2.64-.959l.041.006.013-.024a2.8,2.8,0,0,0,1.987-.517,1.267,1.267,0,0,0,.325-.948h0a3.513,3.513,0,0,1-.967.5,2.294,2.294,0,0,0-1.344.964h-.033l-.02.017-.2-.033a7.424,7.424,0,0,0-1.206-.135,2.445,2.445,0,0,0-1.409.4.5.5,0,0,1-.278.078,1.594,1.594,0,0,1-.692-.233,1.257,1.257,0,0,0-.6-.147,1.2,1.2,0,0,0-.85.33,1.088,1.088,0,0,1-.881.368c-.082,0-.165,0-.246-.008l-.035,0c-.071,0-.144-.007-.216-.007h-.082a2.542,2.542,0,0,1-.365-.035,2.556,2.556,0,0,0-.365-.035,1.05,1.05,0,0,0-.245.027,26.584,26.584,0,0,1-4.379.533c-1.08.071-2.2.144-3.284.318a5.362,5.362,0,0,1-.827.051l-.266,0h-.017l-.306,0a3.252,3.252,0,0,0-1.729.374,1.651,1.651,0,0,0-.3.257c-.161.162-.328.33-.518.33a.368.368,0,0,1-.194-.059c-.186-.113-.109-.273-.02-.459.1-.209.213-.446-.009-.683a3.862,3.862,0,0,1-3.085,1.694h-.1a4.947,4.947,0,0,0-.844.1h-.005a4.939,4.939,0,0,1-.862.1,1.518,1.518,0,0,1-1.43-.9c.258.464.329.789.226,1.022-.094.212-.333.358-.754.458-.524.124-1.066.2-1.589.267-.465.063-.945.127-1.406.227a6.7,6.7,0,0,0-.782.238,3.985,3.985,0,0,1-1.279.3,1.723,1.723,0,0,1-.286-.023,1.372,1.372,0,0,0-.228-.019,2.831,2.831,0,0,0-1.092.305l-.006,0a2.823,2.823,0,0,1-1.08.3,1.38,1.38,0,0,1-.755-.23.154.154,0,0,0-.084-.022.327.327,0,0,0-.256.16.458.458,0,0,0,0,.459,1.2,1.2,0,0,0,1.067.56,1.063,1.063,0,0,0,.688-.228,1.85,1.85,0,0,1,1.157-.333,1.745,1.745,0,0,0,1.192-.373c.181.323.37.48.579.48a1.146,1.146,0,0,0,.6-.29,2.148,2.148,0,0,1,.38-.24c.021-.009.042-.02.063-.031A.391.391,0,0,1,46.315,82.949Zm45.812-2.693a71.86,71.86,0,0,0-8.94,2.423,18.174,18.174,0,0,0,8.94-2.423Z" transform="translate(0 0)"/>
    </g>
    <path id="Rodapé_elemento_3" class="cls-2" d="M1279.67,680.437c-221.292.219-442.59-13.12-663.779-6.359C407.816,680.438,196.21,705.415-.053,773.97V915.1h1919.99L1920,720.587C1714.341,668.562,1493.651,680.225,1279.67,680.437Z" transform="translate(0.053 2111.836)"/>
    <g id="Rodapé_elemento_2" transform="translate(1711 2761)">
      <path id="Fill_167" data-name="Fill 167" class="cls-1" d="M1.408,23.94A175.594,175.594,0,0,1,16.166.21c.62.159.075.546.3.79.352.162.743-.685,1.2.069a1.562,1.562,0,0,1-.123,1.75c-1.541,2.828-3.767,5.216-5.11,8.2-.46,1.02-.661,2.269-1.794,3.063-.7.489-.533,1.725-1.15,2.539-.386.51-.6,1.223-1.03,1.8A15.188,15.188,0,0,0,5.47,26.146c-.051.513-.264.977-.74.993-1.3.043-2.584.581-3.855-.554a2.226,2.226,0,0,1-.747-2.563,27.1,27.1,0,0,1,3.1-6.614c1.433-2.468,3.06-4.819,4.577-7.232C9.849,6.93,12.134,3.865,14.3.714c.206-.3.4-.919.856-.646.34.205-.018.7-.212.994-1.225,1.88-2.537,3.7-3.881,5.5a54.268,54.268,0,0,0-3.442,5.49C5.884,15.077,3.97,18,2.4,21.126a7.991,7.991,0,0,0-.99,2.814" transform="translate(13.852 0)"/>
      <path id="Fill_169" data-name="Fill 169" class="cls-1" d="M4.583,18.571c-.787.633-1.357-.352-1.606-.552-.673-.541-1.729.017-1.992-.623-.4-.97-1.257-1.79-.9-3.089a66.181,66.181,0,0,1,2.7-7.276,29.621,29.621,0,0,1,2.4-5.084A4.268,4.268,0,0,1,6.949.256,1.891,1.891,0,0,1,9.214.522,18.666,18.666,0,0,1,11.041,1.9c.5.543.9,1.112.308,1.853-.415.519-.34,1.2-.548,1.793-.839,2.38-1.159,4.943-2.5,7.144A42.852,42.852,0,0,0,5.791,17.82c-.22.5-.434,1.1-1.207.751" transform="translate(4.052 41.566)"/>
      <path id="Fill_171" data-name="Fill 171" class="cls-1" d="M11.405,0l-.42.945c.137.179.263.072.4.034.279-.079.374-.613.712-.4.408.258-.117.567-.085.873.447.1.566-.448.93-.463a1.9,1.9,0,0,1-.258,2.348,28.9,28.9,0,0,0-3.5,6.781c-.315.92-1.493,1.369-1.516,2.437a6.215,6.215,0,0,1-1.371,3.5c-1.227,1.673-1.489,3.64-2.219,5.458-.205.512.076,1.142-.429,1.561-.163.135-.42.444-.526.184-.365-.889-1.077-.461-1.667-.608C.359,22.375.144,21.3.037,20.359A8.1,8.1,0,0,1,.9,16.108,79.318,79.318,0,0,1,9.22,1.673C9.726.989,10.18.13,11.405,0" transform="translate(46.873 42.313)"/>
      <path id="Fill_173" data-name="Fill 173" class="cls-1" d="M13.817,1.931c-.253.79-.5,1.617-.783,2.43a111.109,111.109,0,0,1-6.681,14.9,49.186,49.186,0,0,0-2.828,5.6c-.21.566-.589,1.012-1.263.41a1.807,1.807,0,0,0-.606-.281A2.224,2.224,0,0,1,.148,21.963,17.785,17.785,0,0,1,2.237,17.85,116.687,116.687,0,0,0,11.308.6c.311-.767.4-.766.945-.182a.368.368,0,0,0,.266.1c1.016-.091,1.108.654,1.3,1.412" transform="translate(29.158 20.23)"/>
      <path id="Fill_175" data-name="Fill 175" class="cls-1" d="M8.76,0C7.83,2.289,6.309,4.041,5.423,6.114a43.173,43.173,0,0,0-2.543,6.352c.816-1.793,1.627-3.589,2.448-5.38A57.448,57.448,0,0,1,8.64,1.2C9.23.229,9.892.279,10.556.811a1.308,1.308,0,0,1,.172,2.007,10.042,10.042,0,0,0-2.4,4.394c-.791,2.719-2.182,5.239-2.6,8.078-.1.654-.57,1.212-.667,1.941a3.5,3.5,0,0,0,.255,2.287c.236.444.817,1.028.3,1.523a1.443,1.443,0,0,1-1.745.333,2.518,2.518,0,0,0-1-.06A2.7,2.7,0,0,1,.045,17.988a30.819,30.819,0,0,1,2.444-7.6A48.789,48.789,0,0,1,7.414,1.16,2.472,2.472,0,0,1,8.76,0" transform="translate(0 80.05)"/>
      <path id="Fill_177" data-name="Fill 177" class="cls-1" d="M2.916,19.023c-2.66-.005-3.461-1.17-2.561-3.376a18.665,18.665,0,0,1,3.056-4.57c2.7-3.324,5.506-6.552,8.495-9.623a5.456,5.456,0,0,1,2.53-1.3c.318-.1,1.027-.288,1-.011-.056.567.512,1.081,0,1.688C13.15,4.539,11.109,7.438,9,10.279c-.932,1.253-1.963,2.434-2.861,3.71-.607.863-1.227,1.8-.612,2.958.074.139.036.5-.03.524-1.05.35-1.685,1.469-2.577,1.551" transform="translate(59.398 86.082)"/>
      <path id="Fill_179" data-name="Fill 179" class="cls-1" d="M4.786,6.873C6.153,5.338,7,3.472,8.349,1.946A15.777,15.777,0,0,0,9.561.621c.56-.8,1.136-.191,1.506.062a.94.94,0,0,1,.142,1.357A38.382,38.382,0,0,0,7.3,9.116C6.547,10.868,5.288,12.4,5.026,14.44a16.125,16.125,0,0,1-.92,2.526c-.391,1.155-1.194.2-1.814.157-.1-.007-.184-.294-.274-.292-.381.005-.606.977-1.053.3C.359,16.219-.288,15.356.136,14A28.206,28.206,0,0,1,2.978,8.022C4.514,5.446,5.93,2.78,8.116.654,8.277.5,8.425.326,8.6.182S9.014-.092,9.2.09c.242.232.114.512-.1.686C7.253,2.293,6.33,4.482,5.031,6.4a4.4,4.4,0,0,0-.244.473" transform="translate(84.718 38)"/>
      <path id="Fill_181" data-name="Fill 181" class="cls-1" d="M12.938,2.344a15.821,15.821,0,0,0,1.7-1.632A1.526,1.526,0,0,1,16.6.152c.468.186.368.676.323.989a2.065,2.065,0,0,1-1.371,1.711c-.186.068-.466-.072-.466.264,0,1.643-1.437,2.518-2.056,3.834-.19.4-.544.787-.794,1.2-.728,1.208-1.324,2.521-2.867,2.983-.36.108-.929.43-.735.976.593,1.666-.574,2.779-1.237,4.015C6.31,18.155,4.929,20.02,3.92,22.1c-.114.234-.184.568-.512.487-.409-.1.133-.465-.151-.678-.509.271-.957,1-1.667.14-.253-.309-.626.213-.808.541-.139.249-.291.483-.6.3-.378-.222-.052-.453.048-.657a84.745,84.745,0,0,1,6.4-10.552l6.16-8.974.154-.362" transform="translate(30.844 80.652)"/>
      <path id="Fill_183" data-name="Fill 183" class="cls-1" d="M4,12.683a.049.049,0,0,1-.044-.019c-.035-.05.014-.191.062-.327s.1-.278.062-.326a.049.049,0,0,0-.042-.019,1.146,1.146,0,0,0-.457.273.239.239,0,0,1-.091.049l-.007,0a1.533,1.533,0,0,0-.932-.382,1.456,1.456,0,0,0-1.035.534.051.051,0,0,1-.039.014,3.976,3.976,0,0,1-1.47-1.742A3.575,3.575,0,0,1,.419,8.887,23.026,23.026,0,0,1,7.226.777,3.6,3.6,0,0,1,9.418,0a4.683,4.683,0,0,1,2.194.62c.375.2.574.42.608.668.037.268-.119.566-.478.912A28.48,28.48,0,0,0,9.758,4.325c-.28.332-.546.682-.8,1.021A16.754,16.754,0,0,1,7.642,6.931,8.017,8.017,0,0,0,6.208,9.326a14.248,14.248,0,0,1-.723,1.455l-.146.247a5.171,5.171,0,0,1-1.3,1.649A.152.152,0,0,1,4,12.683ZM5.506,3.967A12.612,12.612,0,0,0,1.577,9.719C2.922,7.637,4.148,5.768,5.506,3.967Z" transform="translate(62.09 60.117)"/>
      <path id="Fill_185" data-name="Fill 185" class="cls-1" d="M7.476,0,7.059,1.424c.253-.2.407-.255.453-.361C7.889.2,8.581.424,9.127.7a1.188,1.188,0,0,1,.5,1.552A17.874,17.874,0,0,1,8.269,5.009,22.787,22.787,0,0,0,6.183,8.667c-.528,1.364-1.3,2.692-.969,4.3a.784.784,0,0,1-1.168.892,2.178,2.178,0,0,0-1.085-.131c-2.354.118-3.57-1.552-2.655-3.8A32.826,32.826,0,0,1,5.843,1.473c.414-.5.7-1.16,1.634-1.473" transform="translate(91.657 74.741)"/>
      <path id="Fill_187" data-name="Fill 187" class="cls-1" d="M1.205,20.885c-.014.846.7,1.257.8,1.932C.96,22.959.3,22.394.075,21.229a4.772,4.772,0,0,1,.763-3.439c1.31-2.146,2.4-4.415,4.232-6.268.716-.725,1.211-1.9,1.907-2.775,1.984-2.5,4.056-4.933,6.1-7.385A5.346,5.346,0,0,1,14.54.136a.69.69,0,0,1,.84.014.579.579,0,0,1,.1.813,9.608,9.608,0,0,1-.752,1.253c-2.765,3.513-5.6,6.969-8.291,10.54A16.612,16.612,0,0,0,4,17.415a5.757,5.757,0,0,0,.107,2.43c.024.221.332.522-.059.688-.751.319-1.38.634-.719,1.612.15.222-.191.34-.429.345-.425.01-.914,0-.964-.525-.046-.485-.32-.731-.734-1.08" transform="translate(12.104 103.335)"/>
      <path id="Fill_189" data-name="Fill 189" class="cls-1" d="M7.844,3.463c-.244-.173-.38-.206-.487.053a23,23,0,0,1-1.217,2.8c-.306.529-.24,1.621-1.412,1.3-.186-.051-.148.184-.064.317.2.311.075.538-.139.8a1.832,1.832,0,0,0-.371,1.55c.176,1.127-.608,1.677-1.64,1.214-.124-.056-.344-.244-.355-.166C1.9,13.174.9,10.738.494,11.628a1.345,1.345,0,0,1-.483-.975A4.207,4.207,0,0,1,.729,8.209,31.859,31.859,0,0,1,6.992.81,4.96,4.96,0,0,1,9.152.026C9.584-.1,9.839.257,10,.6c.224.469-.023.518-.406.393A4.066,4.066,0,0,1,8.543,3.054c-.2.281-.328.621-.7.409" transform="translate(23.469 63.068)"/>
      <path id="Fill_191" data-name="Fill 191" class="cls-1" d="M.077,22.5h0A5.087,5.087,0,0,1,.092,20.7a7.06,7.06,0,0,0,.086-1.219.875.875,0,0,0,.014-.1,4.264,4.264,0,0,0,1.08-1.789c.107-.27.217-.549.349-.811a3.756,3.756,0,0,0,.19-.487,2.638,2.638,0,0,1,.283-.645c.752-1.106,1.457-2.268,2.139-3.391A55.955,55.955,0,0,1,7.327,7.531c.591-.782,1.166-1.6,1.721-2.386.881-1.25,1.791-2.543,2.792-3.737.052-.062.1-.125.156-.189A4.545,4.545,0,0,1,13.352,0l-.907,1.643,0,0-.657,1.189c.009-.028.019-.06.031-.105a7.835,7.835,0,0,0-1.657,2.05A10.557,10.557,0,0,1,9,6.377a.456.456,0,0,0,.281.132.37.37,0,0,0,.225-.1.383.383,0,0,1,.143-.081.553.553,0,0,1,.11-.012c.207,0,.373.133.491.4l.019.04c.041.087.087.184.054.253a.144.144,0,0,1-.1.071c-.736.189-.722.722-.708,1.237,0,.108.006.22,0,.325a1.5,1.5,0,0,1-.892,1.3,2,2,0,0,0-1.166,2.03l-.412.611a5.059,5.059,0,0,0-1.994,3.33.8.8,0,0,0-.478.3.767.767,0,0,1-.5.3.58.58,0,0,1-.329-.122,4.148,4.148,0,0,1-.76,2.675,7.493,7.493,0,0,0-.651,1.387c-.009.029-.035.043-.08.043a.8.8,0,0,1-.166-.028H2.077a.857.857,0,0,0-.18-.03.113.113,0,0,0-.1.041c-.033.048-.02.141.037.282a.526.526,0,0,0,.494.309.68.68,0,0,0,.455-.186,1.605,1.605,0,0,0-.2.5c-.106.4-.216.806-.935.852-.044,0-.086,0-.125,0a.561.561,0,0,1-.414-.118.574.574,0,0,1-.081-.431c0-.051,0-.1,0-.157-.338.031-.426.252-.519.485-.082.206-.167.418-.437.491Zm3.274-6.688h0c-.114,0-.26.126-.473.41a4.052,4.052,0,0,0-.572,1.306,3.321,3.321,0,0,1-.751,1.5.239.239,0,0,0-.078.2.251.251,0,0,0,.128.182.361.361,0,0,0,.186.058.247.247,0,0,0,.245-.227,3.58,3.58,0,0,1,.547-1.263,4.094,4.094,0,0,0,.5-1.065c.09-.352.18-.6.522-.6a.768.768,0,0,1,.077,0c-.105-.29-.19-.5-.334-.5Zm3.079-5.39-.346.547c-.411.649-.837,1.321-1.244,1.988l-.007.012a.388.388,0,0,0-.083.264.184.184,0,0,0,.091.112.412.412,0,0,0,.2.057.167.167,0,0,0,.18-.118,4.075,4.075,0,0,1,.743-1.329,4.053,4.053,0,0,0,.741-1.327l-.221-.164Z" transform="translate(58.18 9.712)"/>
      <path id="Fill_193" data-name="Fill 193" class="cls-1" d="M.822,9.083a2.435,2.435,0,0,0,.15,1.751c.106.288.187.507-.159.627-.315.109-.509-.112-.621-.353A2.684,2.684,0,0,1,.148,9.227,16.189,16.189,0,0,1,3.5,3.294,12.74,12.74,0,0,0,4.813,1.715,4.337,4.337,0,0,1,7.541.024c.478-.156.57.485.668.83a.8.8,0,0,1-.266.7c-1.7,1.113-1.975,3.186-3.129,4.676-.38.491-.206,1.487-.7,2.139-.388.515-.6,1.159-1.319,1.4-.416.141-.1.677-.289,1-.1.164-.156.36-.361.387s-.463-.148-.426-.279c.248-.879-.79-1.1-.9-1.791" transform="translate(85.759 96.594)"/>
      <path id="Fill_195" data-name="Fill 195" class="cls-1" d="M13.933,2.626l-.154.362A28.077,28.077,0,0,0,9.91,7.473C8.3,9.647,6.845,11.943,5.444,14.259c-1.186,1.96-2.7,3.722-3.53,5.906a4.475,4.475,0,0,1-1.875,2.3c-.23-1.335.62-2.189,1.11-3.13A62.9,62.9,0,0,1,5.673,12.3C8.566,8.192,11.283,3.94,14.888.376c.206-.2.371-.484.867-.333-.324,1.079-1.359,1.646-1.822,2.583" transform="translate(29.85 80.37)"/>
      <path id="Fill_197" data-name="Fill 197" class="cls-1" d="M.984,6.659c-.444.325.079,1.2-.6,1.06C-.2,7.6.014,6.891.159,6.442A10.37,10.37,0,0,1,5.417.269c.39-.2.956-.515,1.317.062.321.512-.175.823-.458,1.143A9.19,9.19,0,0,0,3.669,6.041c-.074.465-.451.633-.836.79a1.01,1.01,0,0,0-.364.253c-.753.856-1.32.946-1.484-.426" transform="translate(86.581 60.59)"/>
      <path id="Fill_199" data-name="Fill 199" class="cls-1" d="M4.379,0C4.255,1.382,3.073,2.145,2.431,3.221A8.3,8.3,0,0,1,.807,5.555c-.189.157-.265.5-.577.329A.46.46,0,0,1,.1,5.194,45.067,45.067,0,0,1,3.3.5C3.583.159,4.032.168,4.412.027Z" transform="translate(59.961 17.452)"/>
      <path id="Fill_201" data-name="Fill 201" class="cls-1" d="M.183,7.05c-.141-.306-.305-.591-.048-.94A61.345,61.345,0,0,1,4.7.329c.13-.139.2-.469.5-.263.187.131.14.333.012.5-1.649,2.085-3.249,4.2-4.747,6.4C.422,7.025.258,7,.151,7.022Z" transform="translate(64.189 10.43)"/>
      <path id="Fill_203" data-name="Fill 203" class="cls-1" d="M1.14,4.844a.656.656,0,0,1-.014.1c-.2.5-.634.912-.6,1.514.013.215.042.519-.285.491-.292-.025-.253-.3-.227-.528A21.847,21.847,0,0,1,1.723.55c.134-.325.525-.673.883-.507.423.2.1.616-.046.861A13.954,13.954,0,0,0,1.14,4.844" transform="translate(57.232 24.25)"/>
      <path id="Fill_205" data-name="Fill 205" class="cls-1" d="M.77,1.877c-.009.036-.019.07-.031.1C1.215,1.5,2.044,1.354,2.124.461c.013-.147.389-.687.768-.354.361.316-.024.65-.233.847A7.5,7.5,0,0,0,.538,4.212C.176,3.789-.366,3.512.355,3c.387-.276.232-.764.415-1.122" transform="translate(69.226 10.567)"/>
      <path id="Fill_207" data-name="Fill 207" class="cls-1" d="M.3,1,.714.39l.5-.39.174.121L.244,2.154,0,2.074.3,1" transform="translate(64.919 21.289)"/>
      <path id="Fill_209" data-name="Fill 209" class="cls-1" d="M.05,3.624C-.171,2.846.4,2.329.693,1.729S1.324.576,1.643,0a.91.91,0,0,1-.077.839C1.043,1.757.553,2.694.05,3.624" transform="translate(61.352 26.376)"/>
    </g>
  </g>
</svg>
