<svg xmlns="http://www.w3.org/2000/svg" width="29" height="29" viewBox="0 0 29 29">
  <defs>
    <style>
      .cls-1 {
        fill: #e82147;
      }
    </style>
  </defs>
  <g id="Fb_active" transform="translate(-762.5 -996)">
    <g id="Social_Icons_24px_Facebook" data-name="Social Icons – 24px / Facebook" transform="translate(762.5 996)">
      <path id="Icon" class="cls-1" d="M27.4,0H1.6A1.6,1.6,0,0,0,0,1.6V27.4A1.6,1.6,0,0,0,1.6,29H15.5V17.785H11.725V13.4H15.5v-3.23c0-3.745,2.29-5.785,5.63-5.785a32.1,32.1,0,0,1,3.37.17V8.465H22.2c-1.82,0-2.175.86-2.175,2.13v2.8h4.35l-.565,4.39H20V29h7.4A1.6,1.6,0,0,0,29,27.4V1.6A1.6,1.6,0,0,0,27.4,0Z" transform="translate(0 0)"/>
    </g>
  </g>
</svg>
