<svg xmlns="http://www.w3.org/2000/svg" width="39.898" height="60.816" viewBox="0 0 39.898 60.816">
  <defs>
    <style>
      .cls-1 {
        fill: #d7d7d7;
      }
    </style>
  </defs>
  <g id="Patisserie" transform="translate(-395 -1033)">
    <g id="noun_Cupcake_1409548" transform="translate(395 1033)">
      <path id="Caminho_57" data-name="Caminho 57" class="cls-1" d="M36.064,32.459a1.239,1.239,0,0,0-2.111,1.3l1.056,1.868a1.183,1.183,0,0,0,1.056.568,1.911,1.911,0,0,0,.65-.162,1.192,1.192,0,0,0,.406-1.705Z" transform="translate(-26.646 -16.464)"/>
      <path id="Caminho_58" data-name="Caminho 58" class="cls-1" d="M45.009,48.526a1.183,1.183,0,0,0,1.056.568,1.911,1.911,0,0,0,.65-.162,1.192,1.192,0,0,0,.406-1.705l-1.056-1.868a1.239,1.239,0,1,0-2.111,1.3Z" transform="translate(-28.526 -18.889)"/>
      <path id="Caminho_59" data-name="Caminho 59" class="cls-1" d="M56.1,47.176h.325a1.22,1.22,0,0,0,1.218-.893l.568-2.03a1.211,1.211,0,0,0-2.355-.568l-.568,2.03A1.107,1.107,0,0,0,56.1,47.176Z" transform="translate(-30.681 -18.514)"/>
      <path id="Caminho_60" data-name="Caminho 60" class="cls-1" d="M48.009,35.526a1.183,1.183,0,0,0,1.056.568,1.911,1.911,0,0,0,.65-.162,1.192,1.192,0,0,0,.406-1.705l-1.056-1.868a1.239,1.239,0,1,0-2.111,1.3Z" transform="translate(-29.09 -16.445)"/>
      <path id="Caminho_61" data-name="Caminho 61" class="cls-1" d="M34.546,47.383l.568-2.03a1.211,1.211,0,1,0-2.355-.568l-.568,2.03a1.21,1.21,0,0,0,.893,1.462h.325A1.3,1.3,0,0,0,34.546,47.383Z" transform="translate(-26.346 -18.721)"/>
      <path id="Caminho_62" data-name="Caminho 62" class="cls-1" d="M61.1,36.176h.325a1.22,1.22,0,0,0,1.218-.893l.568-2.03a1.211,1.211,0,0,0-2.355-.568l-.568,2.03A1.107,1.107,0,0,0,61.1,36.176Z" transform="translate(-31.621 -16.446)"/>
      <path id="Caminho_63" data-name="Caminho 63" class="cls-1" d="M66.009,47.526a1.183,1.183,0,0,0,1.056.568,1.911,1.911,0,0,0,.65-.162,1.192,1.192,0,0,0,.406-1.705l-1.056-1.868a1.239,1.239,0,1,0-2.111,1.3Z" transform="translate(-32.475 -18.701)"/>
      <path id="Caminho_64" data-name="Caminho 64" class="cls-1" d="M50.1,25.176h.325a1.22,1.22,0,0,0,1.218-.893l.568-2.03a1.211,1.211,0,1,0-2.355-.568l-.568,2.03A1.107,1.107,0,0,0,50.1,25.176Z" transform="translate(-29.553 -14.377)"/>
      <path id="Caminho_65" data-name="Caminho 65" class="cls-1" d="M63.568,43.836h0a6.36,6.36,0,0,0,1.218-3.654,6.1,6.1,0,0,0-4.628-5.927,6.255,6.255,0,0,0,1.38-3.816,6.134,6.134,0,0,0-6.09-6.09H53.338a6.509,6.509,0,0,0,.893-3.248V14.362a1.644,1.644,0,0,0-.325-1.137,1.293,1.293,0,0,0-2.111.65,2.98,2.98,0,0,1-3.085,2.355H41.4a5.116,5.116,0,0,0-5.034,5.278v.812a4.489,4.489,0,0,0,.568,2.03H35.15a6.1,6.1,0,0,0-6.09,6.09,6.167,6.167,0,0,0,1.218,3.654A6.185,6.185,0,0,0,26.786,35.8,6.084,6.084,0,0,0,25,40.1a6.36,6.36,0,0,0,1.218,3.654h0a1.163,1.163,0,0,0-.893.406,1.067,1.067,0,0,0-.244.974l4.872,27.607a1.163,1.163,0,0,0,1.218.974H58.778A1.224,1.224,0,0,0,60,72.742l4.872-27.607a1.067,1.067,0,0,0-.244-.974A1.632,1.632,0,0,0,63.568,43.836ZM27.436,40.182a3.91,3.91,0,0,1,1.056-2.6,3.43,3.43,0,0,1,2.6-1.056h4.06a1.218,1.218,0,1,0,0-2.436A3.639,3.639,0,0,1,31.5,30.438a3.911,3.911,0,0,1,1.056-2.6,3.43,3.43,0,0,1,2.6-1.056H41.4a1.249,1.249,0,0,0,1.218-1.218A1.2,1.2,0,0,0,41.4,24.349a2.6,2.6,0,0,1-2.6-2.03v-.812a2.678,2.678,0,0,1,2.6-2.842h7.308a6.46,6.46,0,0,0,3.085-.812V21.1c0,1.462-1.056,3.248-2.273,3.248a1.218,1.218,0,0,0,0,2.436h5.927a3.654,3.654,0,1,1,0,7.308,1.218,1.218,0,0,0,0,2.436H58.7a3.654,3.654,0,0,1,0,7.308H31.09A3.639,3.639,0,0,1,27.436,40.182Zm23.547,6.09V71.443H48.547V46.272Zm-9.744,0V71.443H38.8V46.272Zm-13.56,0h3.085l2.192,25.171h-.893Zm7.795,25.171L33.282,46.272h3.085V71.443Zm8.2,0V46.272h2.436V71.443Zm9.744,0V46.272h3.167L54.393,71.443Zm4.222,0h-.893L58.94,46.272h3.085Z" transform="translate(-25 -12.9)"/>
    </g>
  </g>
</svg>
