<svg xmlns="http://www.w3.org/2000/svg" xmlns:xlink="http://www.w3.org/1999/xlink" width="29" height="29" viewBox="0 0 29 29">
  <defs>
    <style>
      .cls-1 {
        fill: none;
      }

      .cls-2 {
        clip-path: url(#clip-path);
      }

      .cls-3 {
        fill: #e82147;
      }
    </style>
    <clipPath id="clip-path">
      <rect class="cls-1" width="29" height="29"/>
    </clipPath>
  </defs>
  <g id="IG_active" transform="translate(-826.5 -996)">
    <g id="Social_Icons_24px_Instagram" data-name="Social Icons – 24px / Instagram" class="cls-2" transform="translate(826.5 996)">
      <path id="Icon" class="cls-3" d="M8.522,28.913A10.713,10.713,0,0,1,5,28.239a7.127,7.127,0,0,1-2.569-1.673A7.1,7.1,0,0,1,.762,24a10.7,10.7,0,0,1-.674-3.519C.017,18.914,0,18.4,0,14.5s.017-4.414.087-5.978A10.7,10.7,0,0,1,.762,5,7.1,7.1,0,0,1,2.433,2.433,7.1,7.1,0,0,1,5,.762,10.7,10.7,0,0,1,8.522.087C10.086.017,10.6,0,14.5,0s4.414.017,5.979.087A10.7,10.7,0,0,1,24,.762a7.1,7.1,0,0,1,2.569,1.672A7.127,7.127,0,0,1,28.239,5a10.713,10.713,0,0,1,.673,3.52c.07,1.545.087,2.059.087,5.978s-.017,4.433-.087,5.979A10.712,10.712,0,0,1,28.239,24,7.416,7.416,0,0,1,24,28.239a10.712,10.712,0,0,1-3.519.673c-1.546.07-2.06.087-5.979.087S10.067,28.983,8.522,28.913ZM8.641,2.7a8.06,8.06,0,0,0-2.693.5A4.511,4.511,0,0,0,4.281,4.281,4.511,4.511,0,0,0,3.2,5.948a8.06,8.06,0,0,0-.5,2.693c-.07,1.512-.085,1.968-.085,5.859s.014,4.347.085,5.859a8.06,8.06,0,0,0,.5,2.693,4.511,4.511,0,0,0,1.085,1.667A4.511,4.511,0,0,0,5.948,25.8a8.024,8.024,0,0,0,2.693.5c1.512.07,1.968.085,5.859.085s4.347-.014,5.859-.085a8.024,8.024,0,0,0,2.693-.5A4.8,4.8,0,0,0,25.8,23.052a8.024,8.024,0,0,0,.5-2.693c.07-1.512.085-1.968.085-5.859s-.014-4.347-.085-5.859a8.024,8.024,0,0,0-.5-2.693,4.511,4.511,0,0,0-1.085-1.667A4.511,4.511,0,0,0,23.052,3.2a8.06,8.06,0,0,0-2.693-.5c-1.512-.07-1.968-.085-5.859-.085S10.153,2.627,8.641,2.7ZM7.054,14.5A7.446,7.446,0,1,1,14.5,21.946,7.454,7.454,0,0,1,7.054,14.5Zm2.613,0A4.834,4.834,0,1,0,14.5,9.666,4.84,4.84,0,0,0,9.666,14.5ZM20.5,6.76A1.74,1.74,0,1,1,22.24,8.5,1.74,1.74,0,0,1,20.5,6.76Z"/>
    </g>
  </g>
</svg>
