<svg xmlns="http://www.w3.org/2000/svg" xmlns:xlink="http://www.w3.org/1999/xlink" width="29" height="29" viewBox="0 0 29 29">
  <defs>
    <style>
      .cls-1 {
        fill: none;
      }

      .cls-2 {
        clip-path: url(#clip-path);
      }

      .cls-3 {
        fill: #fff;
      }
    </style>
    <clipPath id="clip-path">
      <rect class="cls-1" width="29" height="29"/>
    </clipPath>
  </defs>
  <g id="Linkedin" transform="translate(-954.5 -938)">
    <g id="Social_Icons_24px_LinkedIn" data-name="Social Icons – 24px / LinkedIn" class="cls-2" transform="translate(954.5 938)">
      <path id="Icon" class="cls-3" d="M26.854,29H2.138A2.118,2.118,0,0,1,0,26.907V2.092A2.118,2.118,0,0,1,2.138,0H26.854A2.122,2.122,0,0,1,29,2.092V26.907A2.122,2.122,0,0,1,26.854,29ZM11.3,10.872V24.711h4.3V17.866c0-1.757.306-3.554,2.579-3.554,2.236,0,2.236,2.12,2.236,3.668v6.731h4.3V17.122a8.7,8.7,0,0,0-.947-4.7c-.806-1.277-2.184-1.9-4.214-1.9a4.547,4.547,0,0,0-4.07,2.235h-.059V10.872Zm-7.006,0V24.711H8.6V10.872Zm2.156-6.88A2.495,2.495,0,1,0,8.944,6.486,2.5,2.5,0,0,0,6.451,3.992Z"/>
    </g>
  </g>
</svg>
