<svg xmlns="http://www.w3.org/2000/svg" width="23.608" height="23.608" viewBox="0 0 23.608 23.608">
  <defs>
    <style>
      .cls-1 {
        fill: #ffe0c2;
      }
    </style>
  </defs>
  <g id="Lupa" transform="translate(-283 -964)">
    <path id="Caminho_155" data-name="Caminho 155" class="cls-1" d="M23.608,21.529l-4.9-4.9a10.166,10.166,0,0,0,2.079-6.236A10.329,10.329,0,0,0,10.393,0,10.329,10.329,0,0,0,0,10.393,10.329,10.329,0,0,0,10.393,20.787a10.166,10.166,0,0,0,6.236-2.079l4.9,4.9ZM2.97,10.393A7.352,7.352,0,0,1,10.393,2.97a7.352,7.352,0,0,1,7.424,7.424,7.352,7.352,0,0,1-7.424,7.424A7.352,7.352,0,0,1,2.97,10.393Z" transform="translate(283 964)"/>
  </g>
</svg>
