<svg xmlns="http://www.w3.org/2000/svg" width="14" height="16" viewBox="0 0 14 16">
  <defs>
    <style>
      .cls-1 {
        fill: #d6d6d6;
        fill-rule: evenodd;
      }
    </style>
  </defs>
  <g id="Senha" transform="translate(-448 -968)">
    <path id="Caminho_157" data-name="Caminho 157" class="cls-1" d="M7,8a2,2,0,1,1-2,2A2.006,2.006,0,0,1,7,8ZM7,2A2.006,2.006,0,0,0,5,4H9A2.006,2.006,0,0,0,7,2Zm5,14H2a2.006,2.006,0,0,1-2-2V6A2.006,2.006,0,0,1,2,4H3a4,4,0,0,1,8,0h1a2.006,2.006,0,0,1,2,2v8A2.006,2.006,0,0,1,12,16Z" transform="translate(448 968)"/>
  </g>
</svg>
